<?xml version="1.0" standalone="no"?>
<!DOCTYPE svg PUBLIC "-//W3C//DTD SVG 1.1//EN" "http://www.w3.org/Graphics/SVG/1.1/DTD/svg11.dtd" >
<svg xmlns="http://www.w3.org/2000/svg">
<metadata></metadata>
<defs>
<font id="encode_sans_normalsemibold" horiz-adv-x="1308" >
<font-face units-per-em="2048" ascent="1638" descent="-410" />
<missing-glyph horiz-adv-x="452" />
<glyph unicode="&#xfb01;" horiz-adv-x="1460" d="M33 866v240h239v51q0 143 30 240.5t100.5 156t187.5 84t291 29.5l14 -207q-100 -4 -165.5 -18.5t-103.5 -44t-54.5 -79.5t-16.5 -128v-84h293v-240h-293v-866h-285v866h-237zM1020 1446q0 82 37 120t123 38t124.5 -39t38.5 -119q0 -78 -37.5 -117t-125.5 -39 q-86 0 -123 37t-37 119zM1038 0v1106h285v-1106h-285z" />
<glyph unicode="&#xfb02;" horiz-adv-x="1462" d="M33 866v240h239v51q0 143 30 240.5t100.5 156t187.5 84t291 29.5l14 -207q-100 -4 -165.5 -18.5t-103.5 -44t-54.5 -79.5t-16.5 -128v-84h293v-240h-293v-866h-285v866h-237zM1038 0v1655h285v-1655h-285z" />
<glyph unicode="&#xfb03;" horiz-adv-x="2320" d="M33 866v240h239v51q0 143 30 240.5t100.5 156t187.5 84t291 29.5l14 -207q-100 -4 -165.5 -18.5t-103.5 -44t-54.5 -79.5t-16.5 -128v-84h293v-240h-293v-866h-285v866h-237zM893 866v240h240v51q0 143 29.5 240.5t100 156t187.5 84t291 29.5l14 -207 q-100 -4 -165.5 -18.5t-103.5 -44t-54.5 -79.5t-16.5 -128v-84h293v-240h-293v-866h-285v866h-237zM1880 1446q0 82 37 120t123 38t125 -39t39 -119q0 -78 -38 -117t-126 -39q-86 0 -123 37t-37 119zM1898 0v1106h285v-1106h-285z" />
<glyph unicode="&#xfb04;" horiz-adv-x="2322" d="M33 866v240h239v51q0 143 30 240.5t100.5 156t187.5 84t291 29.5l14 -207q-100 -4 -165.5 -18.5t-103.5 -44t-54.5 -79.5t-16.5 -128v-84h293v-240h-293v-866h-285v866h-237zM893 866v240h240v51q0 143 29.5 240.5t100 156t187.5 84t291 29.5l14 -207 q-100 -4 -165.5 -18.5t-103.5 -44t-54.5 -79.5t-16.5 -128v-84h293v-240h-293v-866h-285v866h-237zM1898 0v1655h285v-1655h-285z" />
<glyph horiz-adv-x="0" />
<glyph unicode="&#xd;" horiz-adv-x="618" />
<glyph horiz-adv-x="0" />
<glyph horiz-adv-x="0" />
<glyph unicode=" "  horiz-adv-x="452" />
<glyph unicode="&#x09;" horiz-adv-x="452" />
<glyph unicode="&#xa0;" horiz-adv-x="452" />
<glyph unicode="!" horiz-adv-x="575" d="M143 135q0 68 38 106t110 38t110.5 -38t38.5 -106t-38.5 -104.5t-110.5 -36.5t-110 37t-38 104zM147 1495v21h283v-21l-55 -1020v-24h-174v24z" />
<glyph unicode="&#x22;" horiz-adv-x="864" d="M125 983v672h229v-8l-80 -664h-149zM547 983v672h229v-8l-80 -664h-149z" />
<glyph unicode="#" horiz-adv-x="1263" d="M94 416v184h203l25 311h-228v185h242l35 420h196l-35 -420h250l35 420h197l-35 -420h190v-185h-204l-25 -311h229v-184h-245l-33 -416h-199l33 416h-248l-33 -416h-196l33 416h-187zM494 600h247l25 311h-248z" />
<glyph unicode="$" horiz-adv-x="1265" d="M86 41v238q139 -33 268 -51.5t232 -18.5q311 0 311 194q0 55 -21.5 92t-60.5 64t-96 45.5t-127 34.5q-125 29 -216 66.5t-151.5 93t-89.5 130.5t-29 177q0 166 104.5 274.5t291.5 145.5v291h264v-277q74 -4 158 -17.5t194 -35.5v-236q-100 29 -210.5 44.5t-200.5 15.5 q-141 0 -220 -52.5t-79 -146.5q0 -47 17 -84t54 -64.5t96.5 -50t145.5 -43.5q113 -27 201 -61.5t149.5 -85.5t94 -124t32.5 -175q0 -184 -104.5 -294t-309.5 -142v-289h-262v278q-104 6 -218 22.5t-218 41.5z" />
<glyph unicode="%" horiz-adv-x="2150" d="M72 1053q0 242 106.5 362.5t306.5 120.5q199 0 305.5 -121t106.5 -362q0 -242 -106.5 -363t-305.5 -121q-201 0 -307 121t-106 363zM283 1053q0 -162 49 -231.5t153 -69.5t152.5 69.5t48.5 231.5t-49 231.5t-152 69.5q-104 0 -153 -71t-49 -230zM598 0l705 1516h247 l-704 -1516h-248zM1255 463q0 242 106.5 362.5t305.5 120.5q201 0 307.5 -120.5t106.5 -362.5t-106.5 -362.5t-307.5 -120.5q-199 0 -305.5 120.5t-106.5 362.5zM1464 463q0 -162 49.5 -232.5t153.5 -70.5t153.5 70.5t49.5 232.5q0 160 -49 230.5t-154 70.5 q-104 0 -153.5 -70.5t-49.5 -230.5z" />
<glyph unicode="&#x26;" horiz-adv-x="1570" d="M92 422q0 141 75 244.5t214 150.5q-74 78 -105.5 156t-31.5 168q0 193 139 296t391 103q92 0 192.5 -15.5t213.5 -49.5l2 -13l-35 -188h-17q-88 31 -172 47t-155 16q-268 0 -268 -219q0 -111 98 -213t321 -223l183 -100q6 55 6 118v164l258 10v-172q0 -135 -29 -249 l184 -101v-20l-108 -199h-18l-160 94q-88 -123 -231.5 -185t-338.5 -62q-141 0 -253.5 30.5t-191.5 88t-121 139t-42 184.5zM385 436q0 -117 90 -186.5t244 -69.5q244 0 348 168l-231 137q-88 51 -160 97.5t-131 91.5q-160 -72 -160 -238z" />
<glyph unicode="'" horiz-adv-x="442" d="M125 983v672h229v-8l-80 -664h-149z" />
<glyph unicode="(" horiz-adv-x="669" d="M78 725q0 285 81 554t236 499h252v-9q-158 -227 -248 -493t-90 -551t90 -551t248 -493v-9h-252q-156 229 -236.5 498.5t-80.5 554.5z" />
<glyph unicode=")" horiz-adv-x="667" d="M23 -319q158 227 246.5 493t88.5 551t-89 551t-246 493v9h249q158 -229 237 -498.5t79 -554.5t-79 -554t-237 -499h-249v9z" />
<glyph unicode="*" horiz-adv-x="1021" d="M78 1331l51 158l152 -49l192 -111l-45 221v158h166v-158l-47 -221l192 111l152 49l51 -158l-149 -49l-220 -22l164 -150l94 -129l-135 -96l-94 127l-92 209l-92 -209l-92 -127l-136 96l95 129l164 150l-222 22z" />
<glyph unicode="+" horiz-adv-x="1034" d="M82 666v184h342v336h186v-336h344v-184h-344v-336h-186v336h-342z" />
<glyph unicode="," horiz-adv-x="540" d="M55 -297l90 592h289l-164 -612z" />
<glyph unicode="-" horiz-adv-x="1013" d="M123 465v217h768v-217h-768z" />
<glyph unicode="." horiz-adv-x="534" d="M102 145q0 80 43 118t121 38t123 -39t45 -117q0 -80 -45 -118.5t-123 -38.5q-76 0 -120 39t-44 118z" />
<glyph unicode="/" horiz-adv-x="862" d="M55 -246l504 1762h248l-504 -1762h-248z" />
<glyph unicode="0" horiz-adv-x="1429" d="M96 756q0 389 160 584.5t459 195.5t457.5 -195.5t158.5 -584.5q0 -387 -158.5 -581.5t-457.5 -194.5t-459 194.5t-160 581.5zM385 756q0 -291 80 -417t250 -126q168 0 247.5 126t79.5 417t-79.5 417.5t-247.5 126.5q-84 0 -146.5 -30.5t-103.5 -96t-60.5 -169 t-19.5 -248.5z" />
<glyph unicode="1" horiz-adv-x="911" d="M33 1235v14l475 267h219v-1516h-289v1200h-8l-344 -131h-18z" />
<glyph unicode="2" horiz-adv-x="1210" d="M84 2v213q0 111 33 194t92 147.5t142 117.5t184 104q141 74 211.5 141.5t70.5 163.5q0 111 -70.5 162t-220.5 51q-90 0 -189 -15t-185 -36l-25 236q143 29 252.5 41t208.5 12q266 0 392 -105.5t126 -318.5q0 -90 -25.5 -161.5t-74 -131t-117 -110t-154.5 -97.5 q-80 -45 -146.5 -85t-114.5 -78.5t-74.5 -78.5t-26.5 -83v-54h733v-229h-1022z" />
<glyph unicode="3" horiz-adv-x="1159" d="M104 8v221h9q25 -6 63.5 -11t81.5 -10t85 -7t77 -2q188 0 267 56t79 181q0 123 -79 177.5t-275 54.5h-138v204h136q174 0 245.5 52.5t71.5 169.5q0 115 -69.5 166t-231.5 51q-55 0 -140 -8.5t-171 -22.5h-11v221q37 6 84.5 13.5t96.5 11.5t96 7t86 3q276 0 416.5 -102.5 t140.5 -305.5q0 -129 -65.5 -218t-188.5 -124v-14q139 -29 217 -123t78 -233q0 -215 -153.5 -327t-446.5 -112q-47 0 -98.5 2.5t-99.5 6.5t-90 10t-73 12z" />
<glyph unicode="4" horiz-adv-x="1320" d="M37 492v16l506 1028h8l283 -29l10 -26l-508 -930v-10h434l70 434h204v-434h226v-222h-226v-319h-284v319h-684z" />
<glyph unicode="5" horiz-adv-x="1159" d="M100 8v221h60q72 -14 136 -20t126 -6q180 0 269 57t89 203q0 66 -25.5 109.5t-82 71.5t-146.5 39t-219 11h-155l-27 27l59 795h817v-230h-600l-22 -377q178 -2 310 -25.5t219 -76.5t130 -139t43 -215q0 -133 -49 -223.5t-133 -147.5t-197.5 -82t-244.5 -25 q-86 0 -175 9.5t-182 23.5z" />
<glyph unicode="6" horiz-adv-x="1339" d="M96 678q0 420 195.5 640t576.5 220q141 0 306 -39l-31 -213q-82 18 -144.5 26.5t-121.5 8.5q-223 0 -342 -121t-144 -377q72 59 169 93t202 34q117 0 211 -31.5t160.5 -90t102.5 -141.5t36 -187q0 -121 -40 -217.5t-116 -164t-182.5 -104.5t-239.5 -37 q-293 0 -445.5 176.5t-152.5 524.5zM385 637q6 -231 81 -337.5t228 -106.5q135 0 209 77.5t74 223.5q0 133 -72 199.5t-211 66.5q-84 0 -168 -35t-141 -88z" />
<glyph unicode="7" horiz-adv-x="1081" d="M43 1489l25 27h940l45 -154v-41l-533 -1321l-65 -39l-244 39v35l526 1233h-680z" />
<glyph unicode="8" horiz-adv-x="1337" d="M92 389q0 78 21.5 138.5t57.5 107.5t83 82t98 59q-92 51 -151.5 134t-59.5 229q0 94 40 166.5t112 124t171 78t220 26.5q238 0 376 -102.5t138 -292.5q0 -70 -16.5 -123t-45 -95t-67.5 -74t-86 -59q55 -25 102.5 -56.5t82 -76.5t55 -104t20.5 -137q0 -203 -140 -314.5 t-431 -111.5q-297 0 -438.5 102.5t-141.5 298.5zM365 420q0 -117 83.5 -176.5t223.5 -59.5q137 0 218 55.5t81 159.5q0 68 -28 113t-75 75.5t-110.5 52.5t-132.5 40l-68 18q-33 -18 -66.5 -41.5t-61.5 -57.5t-46 -78t-18 -101zM399 1124q0 -63 29 -105t78 -71.5t111.5 -49 t130.5 -36.5l24 -6q31 18 61.5 44t55 58.5t39 72.5t14.5 89q0 106 -74.5 160.5t-195.5 54.5t-197 -53.5t-76 -157.5z" />
<glyph unicode="9" horiz-adv-x="1341" d="M70 1016q0 119 40 216t115.5 164.5t182 104.5t239.5 37q293 0 445.5 -176t152.5 -524q0 -420 -195.5 -640.5t-576.5 -220.5q-141 0 -305 39l31 213q82 -18 144.5 -26t121.5 -8q223 0 342 120.5t143 376.5q-72 -59 -169 -93t-201 -34q-117 0 -211.5 32t-161 90t-102 141 t-35.5 188zM365 1022q0 -133 71.5 -199.5t210.5 -66.5q84 0 168 34.5t141 88.5q-6 231 -80.5 337.5t-228.5 106.5q-135 0 -208.5 -78t-73.5 -223z" />
<glyph unicode=":" horiz-adv-x="561" d="M115 145q0 80 43 118t121 38t122.5 -39t44.5 -117q0 -80 -44.5 -118.5t-122.5 -38.5q-76 0 -120 39t-44 118zM115 965q0 80 43 117.5t121 37.5t122.5 -39t44.5 -116q0 -80 -44.5 -119t-122.5 -39q-76 0 -120 39t-44 119z" />
<glyph unicode=";" horiz-adv-x="595" d="M82 -297l90 592h289l-164 -612zM143 965q0 80 43 117.5t121 37.5t123 -39t45 -116q0 -80 -45 -119t-123 -39q-76 0 -120 39t-44 119z" />
<glyph unicode="&#x3c;" horiz-adv-x="1095" d="M78 657v179l885 387v-205l-625 -273l623 -270v-203z" />
<glyph unicode="=" horiz-adv-x="1095" d="M129 403v191h838v-191h-838zM129 850v188h838v-188h-838z" />
<glyph unicode="&#x3e;" horiz-adv-x="1097" d="M135 1018v205l885 -387v-179l-883 -385v203l623 270z" />
<glyph unicode="?" horiz-adv-x="960" d="M63 1485q88 23 176.5 35t184.5 12q102 0 189 -23.5t149.5 -73t98.5 -125t36 -180.5q0 -96 -33 -167.5t-87 -123t-125.5 -84t-151.5 -48.5l-11 -252v-33h-190v33l-20 376q68 14 132 36t114 53.5t80 75.5t30 106q0 59 -20.5 99t-56.5 64.5t-83 35t-100 10.5 q-76 0 -154 -11.5t-141 -27.5zM252 131q0 70 39 106.5t110 36.5q70 0 110 -36.5t40 -106.5q0 -68 -40 -104.5t-110 -36.5q-72 0 -110.5 36.5t-38.5 104.5z" />
<glyph unicode="@" horiz-adv-x="1818" d="M88 532q0 199 60.5 355.5t171 266.5t267 167t351.5 57q190 0 335.5 -51t243 -148.5t147.5 -237.5t50 -316q0 -248 -100.5 -383.5t-292.5 -135.5q-57 0 -99 16.5t-70 43.5t-42 57.5t-16 61.5h-11q-27 -41 -64.5 -72t-81.5 -52.5t-92 -32.5t-95 -11q-135 0 -209 96t-74 264 q0 115 36 212t102.5 168t160.5 111t211 40q72 0 153.5 -19.5t167.5 -54.5l-79 -426q-6 -35 -11.5 -64.5t-5.5 -54.5q0 -61 29 -95t98 -34q100 0 154.5 95.5t54.5 269.5q0 281 -150.5 432t-449.5 151q-154 0 -278.5 -45t-212 -132t-134.5 -213t-47 -286q0 -158 45 -277.5 t126 -199.5t194.5 -119.5t251.5 -39.5q174 0 411 71l52 -160q-129 -39 -247 -59t-216 -20q-176 0 -321.5 51t-251 152.5t-164 252t-58.5 348.5zM643 477q0 -98 35.5 -153.5t109.5 -55.5q45 0 90.5 18.5t82 52.5t63.5 84t39 114l53 301q-78 23 -137 22q-74 0 -135.5 -28.5 t-106.5 -80t-69.5 -122t-24.5 -152.5z" />
<glyph unicode="A" horiz-adv-x="1472" d="M4 0v16l516 1500h432l516 -1500v-16h-282l-137 395h-627l-135 -395h-283zM492 625h487l-137 401l-94 285h-25l-92 -285z" />
<glyph unicode="B" horiz-adv-x="1425" d="M160 10v1495q154 16 276.5 23.5t239.5 7.5q328 0 474 -100.5t146 -321.5q0 -131 -66.5 -218t-193.5 -116v-8q152 -29 231 -122t79 -242q0 -217 -155 -322.5t-474 -105.5q-262 0 -557 30zM436 203q41 -8 101.5 -10.5t175.5 -2.5q176 0 260 58.5t84 183.5q0 123 -78 180.5 t-252 57.5h-291v-467zM436 864h273q164 0 231.5 52.5t67.5 179.5q0 125 -73 177t-243 52q-78 0 -140.5 -3t-115.5 -11v-447z" />
<glyph unicode="C" horiz-adv-x="1226" d="M90 756q0 395 178 588.5t539 193.5q70 0 157 -8t191 -25v-235q-57 8 -102 13t-82 8t-69 5t-62 2q-123 0 -210 -28.5t-140.5 -93t-78 -168t-24.5 -252.5q0 -147 24.5 -250t77 -167.5t136.5 -93t204 -28.5q33 0 78 3t90 7t87 11.5t71 13.5v-234q-72 -18 -164 -29.5 t-170 -11.5q-371 0 -551 191.5t-180 587.5z" />
<glyph unicode="D" horiz-adv-x="1550" d="M160 6v1505q141 10 267 16.5t214 6.5q213 0 368.5 -46t256 -141.5t148.5 -242t48 -348.5q0 -207 -50 -353.5t-156.5 -241.5t-273.5 -139.5t-400 -44.5q-121 0 -236 7.5t-186 21.5zM449 229q66 -10 121 -14t116 -4q129 0 219 29.5t148.5 95t85 170t26.5 252.5 q0 147 -26.5 249.5t-85 168t-150.5 95t-223 29.5q-47 0 -107.5 -4t-123.5 -10v-1057z" />
<glyph unicode="E" horiz-adv-x="1316" d="M160 0v1516h1050v-230h-759v-407h696v-230h-696v-420h778v-229h-1069z" />
<glyph unicode="F" horiz-adv-x="1263" d="M160 0v1516h1042v-230h-751v-438h679v-230h-679v-618h-291z" />
<glyph unicode="G" horiz-adv-x="1406" d="M88 756q0 782 772 782q98 0 210 -12.5t206 -36.5v-236q-129 25 -222 35t-171 10q-137 0 -231.5 -29.5t-153 -94t-85 -168t-26.5 -250.5q0 -145 24.5 -247.5t78 -167.5t140.5 -94.5t210 -29.5q37 0 86 3t98 9v541h268v-723q-115 -31 -241 -50.5t-220 -19.5 q-377 0 -560 192.5t-183 586.5z" />
<glyph unicode="H" horiz-adv-x="1634" d="M160 0v1516h291v-625h733v625h289v-1516h-289v662h-733v-662h-291z" />
<glyph unicode="I" horiz-adv-x="610" d="M160 0v1516h291v-1516h-291z" />
<glyph unicode="J" horiz-adv-x="608" d="M6 -326q45 100 76 186.5t49.5 169.5t25.5 171t7 192v1123h291v-1143q0 -104 -13.5 -196.5t-44 -184.5t-80 -189.5t-122.5 -212.5z" />
<glyph unicode="K" horiz-adv-x="1447" d="M160 0v1516h291v-633h243l396 633h325l-438 -670l-86 -53v-15l92 -53l467 -725h-324l-411 653h-264v-653h-291z" />
<glyph unicode="L" horiz-adv-x="1142" d="M160 0v1516h291v-1289h663v-227h-954z" />
<glyph unicode="M" horiz-adv-x="1990" d="M160 0v1516h397l324 -807l106 -318h14l109 318l324 807h397v-1516h-260v1180h-17l-151 -420l-287 -699h-244l-286 699l-152 420h-14v-1180h-260z" />
<glyph unicode="N" horiz-adv-x="1640" d="M160 0v1516h237l690 -908l121 -176h17v1084h256v-1516h-238l-684 897l-127 184h-16v-1081h-256z" />
<glyph unicode="O" horiz-adv-x="1589" d="M88 756q0 387 181.5 583.5t525.5 196.5t525 -197.5t181 -582.5q0 -383 -181 -579.5t-525 -196.5t-525.5 195.5t-181.5 580.5zM385 756q0 -145 23.5 -247.5t72.5 -168.5t127 -95.5t187 -29.5t186.5 29.5t126.5 95.5t72.5 168t23.5 248q0 289 -98 416.5t-311 127.5 q-109 0 -186 -30.5t-127 -96t-73.5 -169t-23.5 -248.5z" />
<glyph unicode="P" horiz-adv-x="1390" d="M160 0v1505q227 31 426 31q197 0 338 -30.5t233 -97.5t135 -169t43 -244q0 -279 -179 -409.5t-558 -130.5h-70.5t-76.5 4v-459h-291zM451 698q33 -6 87 -10t105 -4q111 0 186.5 16.5t122.5 53.5t67.5 96t20.5 145q0 84 -20.5 143.5t-66.5 96.5t-121.5 54.5t-184.5 17.5 q-47 0 -103.5 -4.5t-92.5 -8.5v-596z" />
<glyph unicode="Q" horiz-adv-x="1585" d="M84 756q0 377 183.5 578.5t525.5 201.5t524 -201.5t182 -578.5q0 -340 -158.5 -519.5t-459.5 -179.5v-20q109 -23 186.5 -37t143 -24.5t127 -17.5t135.5 -13l-64 -240q-381 82 -636 172t-408.5 210t-217 281.5t-63.5 387.5zM379 756q0 -283 98.5 -412t315.5 -129 q213 0 312 129t99 412q0 285 -99 416t-312 131q-215 0 -314.5 -131.5t-99.5 -415.5z" />
<glyph unicode="R" horiz-adv-x="1429" d="M160 0v1505q221 31 426 31q197 0 338 -29.5t233 -91t135 -158t43 -229.5q0 -338 -313 -450l373 -578h-324l-307 526q-74 -6 -160 -6q-27 0 -74 2t-79 6v-528h-291zM451 764q29 -8 79 -12t113 -4q111 0 186.5 14t122.5 48t67.5 87t20.5 131q0 76 -20.5 129t-67.5 86 t-121.5 48.5t-183.5 15.5q-45 0 -101.5 -4.5t-94.5 -8.5v-530z" />
<glyph unicode="S" horiz-adv-x="1259" d="M82 41v238q139 -33 268 -51.5t232 -18.5q311 0 311 194q0 55 -21.5 92t-60.5 64t-96.5 45.5t-126.5 34.5q-125 29 -216 66.5t-151.5 93t-89.5 130.5t-29 177q0 100 40 181t114 137.5t179.5 87t238.5 30.5q94 0 195.5 -12t244.5 -43v-236q-100 29 -210.5 44.5t-201.5 15.5 q-141 0 -220 -52.5t-79 -146.5q0 -47 17.5 -84t54.5 -64.5t96.5 -50t145.5 -43.5q113 -27 201 -61.5t149 -85.5t94 -124t33 -175q0 -219 -149.5 -334t-438.5 -115q-55 0 -120.5 5.5t-134 13.5t-137.5 20.5t-132 26.5z" />
<glyph unicode="T" horiz-adv-x="1282" d="M37 1284v232h1208v-232h-459v-1284h-290v1284h-459z" />
<glyph unicode="U" horiz-adv-x="1605" d="M145 621v897h289v-902q0 -209 90 -304t279 -95q188 0 277 94.5t89 304.5v902h291v-897q0 -166 -35.5 -287t-113.5 -200t-203 -116.5t-305 -37.5t-305 37.5t-204 116.5t-114 200t-35 287z" />
<glyph unicode="V" horiz-adv-x="1462" d="M6 1516h305l324 -936l88 -306h20l91 306l323 936h301l-532 -1516h-387z" />
<glyph unicode="W" horiz-adv-x="2172" d="M29 1516h309l217 -949l53 -274h21l63 274l250 949h293l248 -949l61 -274h21l55 274l219 949h309l-393 -1516h-383l-223 836l-53 315h-17l-53 -317l-225 -834h-383z" />
<glyph unicode="X" horiz-adv-x="1452" d="M-10 0l551 786l-516 730h329l322 -474l43 -79h16l43 79l324 474h325l-526 -740l565 -776h-329l-365 530l-39 70h-16l-37 -70l-363 -530h-327z" />
<glyph unicode="Y" horiz-adv-x="1400" d="M-6 1516h315l320 -611l61 -147h19l63 147l320 611h313l-557 -1014v-502h-291v494z" />
<glyph unicode="Z" horiz-adv-x="1282" d="M66 0v215l770 1053v14h-742v234h1094v-209l-770 -1059v-15h801v-233h-1153z" />
<glyph unicode="[" horiz-adv-x="718" d="M166 -328v2106h496v-191h-273v-1724h273v-191h-496z" />
<glyph unicode="\" horiz-adv-x="860" d="M55 1516h246l502 -1762h-244z" />
<glyph unicode="]" horiz-adv-x="718" d="M57 -137h273v1724h-273v191h496v-2106h-496v191z" />
<glyph unicode="^" horiz-adv-x="1046" d="M78 985l319 631h252l320 -631h-205l-238 449h-8l-235 -449h-205z" />
<glyph unicode="_" horiz-adv-x="1280" d="M96 -119h1088v-215h-1088v215z" />
<glyph unicode="`" horiz-adv-x="583" d="M49 1653h299l137 -379l-209 -21z" />
<glyph unicode="a" horiz-adv-x="1161" d="M70 297q0 164 101 249t318 101l261 19v36q0 61 -10.5 101.5t-38 65t-75.5 34.5t-124 10q-72 0 -162 -9t-182 -27l-19 202q229 41 412 41q248 0 365.5 -90t117.5 -280v-750h-233l-27 137h-16q-178 -147 -377 -147q-154 0 -232.5 80t-78.5 227zM356 328q1 -138 142 -138 q61 0 128.5 27t123.5 66v227l-175 -16q-123 -10 -171 -47t-48 -119z" />
<glyph unicode="b" horiz-adv-x="1306" d="M133 35v1620h285v-668q119 137 344 137q227 0 345 -135t118 -416q0 -289 -156.5 -441.5t-435.5 -154.5q-49 0 -100.5 2.5t-112 8.5t-131 17t-156.5 30zM418 195q41 -8 95.5 -13.5t115.5 -5.5q82 0 141 18.5t96 62.5t54.5 115.5t17.5 178.5q0 100 -14.5 167.5t-45 109.5 t-79.5 60.5t-119 18.5q-115 0 -188.5 -56t-73.5 -171v-485z" />
<glyph unicode="c" horiz-adv-x="1028" d="M82 553q0 571 553 571q78 0 161 -8t148 -24v-228q-74 12 -145.5 19.5t-136.5 7.5q-156 0 -225.5 -80t-69.5 -256q0 -180 67.5 -260t224.5 -80q84 0 148.5 5t136.5 20v-226q-59 -16 -142 -24t-167 -8q-553 0 -553 571z" />
<glyph unicode="d" d="M82 535q0 147 41 258.5t117.5 185.5t186.5 110.5t245 36.5q59 0 112.5 -5t102.5 -9v543h284v-1655h-249l-23 135h-14q-111 -155 -338 -155q-229 0 -347 135t-118 420zM369 553q0 -100 14 -169t45 -112t80 -61t119 -18q115 0 187.5 59t72.5 180v471q-47 8 -102.5 14.5 t-120.5 6.5q-78 0 -134.5 -18.5t-92.5 -62.5t-52 -115t-16 -175z" />
<glyph unicode="e" horiz-adv-x="1175" d="M84 543q0 287 138 434t407 147q465 0 465 -493q0 -49 -3.5 -88t-13.5 -74h-712q6 -76 25.5 -127t55 -83t89 -45t129.5 -13q86 0 189 13t189 38l11 -207q-92 -29 -203 -46t-215 -17q-551 0 -551 561zM365 633h477q-4 156 -56.5 222.5t-167.5 66.5q-121 0 -182 -69 t-71 -220z" />
<glyph unicode="f" horiz-adv-x="876" d="M33 866v240h239v51q0 143 30 240.5t100.5 156t187.5 84t291 29.5l14 -207q-100 -4 -165.5 -18.5t-103.5 -44t-54.5 -79.5t-16.5 -128v-84h293v-240h-293v-866h-285v866h-237z" />
<glyph unicode="g" horiz-adv-x="1306" d="M82 547q0 145 42 253.5t118.5 181.5t186.5 108.5t245 35.5q49 0 100 -3t110.5 -12t131 -24.5t158.5 -39.5v-922q0 -164 -48.5 -274.5t-129.5 -177t-189 -95.5t-229 -29q-111 0 -223.5 12.5t-194.5 35.5l18 208q74 -16 166 -29.5t184 -13.5q82 0 151 15.5t119 53.5 t78.5 101.5t28.5 157.5v92h-14q-55 -84 -141 -123t-201 -39q-229 0 -348 128t-119 399zM371 567q0 -186 58.5 -263t199.5 -77q117 0 188.5 60.5t71.5 181.5v434q-47 8 -103.5 14.5t-119.5 6.5q-78 0 -134.5 -18.5t-92.5 -59.5t-52 -109.5t-16 -169.5z" />
<glyph unicode="h" d="M135 0v1655h285v-670q147 72 254.5 106.5t199.5 34.5q145 0 225.5 -77.5t80.5 -227.5v-821h-285v725q0 92 -36 133t-109 41q-61 0 -147.5 -24.5t-182.5 -67.5v-807h-285z" />
<glyph unicode="i" horiz-adv-x="559" d="M119 1446q0 82 37 120t123 38t124.5 -39t38.5 -119q0 -78 -37.5 -117t-125.5 -39q-86 0 -123 37t-37 119zM137 0v1106h285v-1106h-285z" />
<glyph unicode="j" horiz-adv-x="555" d="M27 -406q31 78 51 154t34.5 158t20.5 177t6 212v68.5v130v163.5t-1 173t-2 158t-1 118h285v-944q-10 -166 -58.5 -321.5t-128.5 -291.5zM113 1446q0 82 37.5 120t123.5 38t124 -39t38 -119q0 -78 -38 -117t-124 -39t-123.5 37t-37.5 119z" />
<glyph unicode="k" horiz-adv-x="1212" d="M135 0v1655h285v-993h147l310 444h315l-385 -518l-45 -15v-8l47 -16l418 -549h-316l-348 477h-143v-477h-285z" />
<glyph unicode="l" horiz-adv-x="561" d="M139 0v1655h285v-1655h-285z" />
<glyph unicode="m" horiz-adv-x="1925" d="M137 0v1106h236l16 -127h12q123 74 218.5 110.5t185.5 36.5q201 0 272 -149h8q123 76 220.5 112.5t185.5 36.5q145 0 225 -77.5t80 -227.5v-821h-283v721q0 92 -35.5 132t-111.5 40q-49 0 -117.5 -21.5t-140.5 -62.5v-809h-283v721q0 92 -34.5 132t-112.5 40 q-49 0 -119 -23.5t-139 -62.5v-807h-283z" />
<glyph unicode="n" d="M137 0v1106h238l16 -127h12q158 78 268.5 112.5t205.5 34.5q143 0 223 -77.5t80 -227.5v-821h-285v725q0 94 -35 134t-110 40q-66 0 -151 -25.5t-177 -66.5v-807h-285z" />
<glyph unicode="o" horiz-adv-x="1286" d="M80 553q0 281 144.5 427t418.5 146t418.5 -146t144.5 -427t-144.5 -427t-418.5 -146t-418.5 146t-144.5 427zM367 553q0 -193 64.5 -273.5t211.5 -80.5t212 80.5t65 273.5t-64.5 272.5t-212.5 79.5q-147 0 -211.5 -80t-64.5 -272z" />
<glyph unicode="p" horiz-adv-x="1310" d="M137 -451v1557h248l23 -133h14q110 153 339 153h3q229 0 346 -136t117 -417q0 -145 -41 -255.5t-117 -186.5t-185.5 -113.5t-246.5 -37.5q-59 0 -113.5 4t-101.5 10v-445h-285zM422 203q43 -10 100.5 -15.5t120.5 -5.5q80 0 136.5 18.5t92 61.5t52 115t16.5 176 q0 100 -14.5 169t-45 112t-79.5 61t-119 18q-117 0 -188.5 -60t-71.5 -183v-467z" />
<glyph unicode="q" horiz-adv-x="1306" d="M82 535q0 293 156.5 442t437.5 149q135 0 268 -15t227 -32v-1530h-272v588q-63 -80 -152.5 -118.5t-199.5 -38.5q-465 0 -465 555zM369 557q0 -100 13 -170t44 -113t80 -62t121 -19q123 0 191.5 63t68.5 184v463q-109 20 -221 21q-82 0 -138.5 -19.5t-92.5 -62.5 t-51 -114t-15 -171z" />
<glyph unicode="r" horiz-adv-x="880" d="M137 0v1106h238l16 -160h8q94 63 188.5 112.5t180.5 65.5h90v-245h-100q-88 -10 -177 -41t-159 -72v-766h-285z" />
<glyph unicode="s" horiz-adv-x="1046" d="M86 27v204q113 -25 212 -39t191 -14q209 0 209 127q0 70 -52 98.5t-150 45.5q-66 10 -136.5 24t-129 48t-96.5 97.5t-38 172.5q0 160 120 249.5t333 89.5q39 0 79 -2t84 -7t97 -12t119 -19l-8 -218q-111 25 -195 37.5t-150 12.5q-206 0 -206 -124q0 -73 61.5 -98.5 t175.5 -44.5q80 -12 147.5 -33.5t117 -60.5t76 -96t26.5 -141q0 -166 -121 -256.5t-350 -90.5q-86 0 -190.5 12.5t-225.5 37.5z" />
<glyph unicode="t" horiz-adv-x="880" d="M35 864v242h225l43 303l221 27v-330h301v-242h-299v-483q0 -98 40 -141t130 -43q61 0 135 24v-215q-47 -12 -107.5 -20.5t-119.5 -8.5q-180 0 -270 86.5t-90 251.5v549h-209z" />
<glyph unicode="u" d="M129 285v821h285v-733q0 -92 31.5 -131t109.5 -39q76 0 163 30.5t171 67.5v805h285v-1106h-240l-16 131h-9q-80 -41 -140 -69.5t-112.5 -47t-105.5 -26.5t-119 -8q-150 0 -226.5 78.5t-76.5 226.5z" />
<glyph unicode="v" horiz-adv-x="1226" d="M27 1075v31h303l219 -660l55 -219h23l55 219l225 660h297v-31l-416 -1075h-352z" />
<glyph unicode="w" horiz-adv-x="1703" d="M35 1096v10h278l160 -684l29 -152h18l29 152l178 684h248l182 -684l31 -152h18l29 152l156 684h276v-10l-295 -1096h-315l-170 633l-27 139h-18l-25 -139l-166 -633h-313z" />
<glyph unicode="x" horiz-adv-x="1216" d="M16 0v31l398 542l-379 514v19h301l203 -287l63 -98h14l64 98l201 287h301v-19l-379 -522l397 -534v-31h-299l-219 307l-68 111h-16l-66 -111l-217 -307h-299z" />
<glyph unicode="y" horiz-adv-x="1236" d="M18 1075v31h306l229 -619l57 -188h17l57 188l238 619h297v-31l-637 -1526l-267 41l-2 25l162 399z" />
<glyph unicode="z" horiz-adv-x="1093" d="M74 0v182l567 692v15h-549v217h909v-178l-555 -695v-16h576v-217h-948z" />
<glyph unicode="{" horiz-adv-x="724" d="M61 621v217q74 0 107 49t33 145v492q0 139 52 196.5t175 57.5q18 0 53 -1t70 -3t64.5 -3.5t37.5 -3.5v-180h-127q-51 0 -72.5 -20.5t-21.5 -67.5v-526q0 -94 -44 -162t-118 -84q74 -12 118 -79.5t44 -162.5v-530q0 -47 21.5 -68.5t72.5 -21.5h127v-180q-8 -2 -36.5 -4.5 t-63.5 -3.5t-69.5 -2t-53.5 -1q-123 0 -176 57.5t-53 198.5v496q0 96 -33 145.5t-107 49.5z" />
<glyph unicode="|" horiz-adv-x="600" d="M166 -451v2106h268v-2106h-268z" />
<glyph unicode="}" horiz-adv-x="724" d="M70 -135h129q53 0 74.5 21.5t21.5 68.5v530q0 94 43 162t117 80q-74 16 -117 84t-43 162v526q0 47 -21.5 67.5t-74.5 20.5h-129v180q8 2 37.5 3.5t65.5 3.5t71 3t53 1q123 0 175 -57.5t52 -196.5v-492q0 -96 33 -145t107 -49v-217q-74 0 -107 -49.5t-33 -145.5v-496 q0 -141 -53 -198.5t-176 -57.5q-18 0 -53 1l-70 2t-64.5 3.5t-37.5 4.5v180z" />
<glyph unicode="~" horiz-adv-x="1378" d="M98 563q61 72 110.5 120t92.5 75.5t85 39t89 11.5q66 0 118 -24.5t100 -53.5t94.5 -53.5t99.5 -24.5q66 0 128 40t107 110l160 -94q-31 -45 -68.5 -94.5t-85 -89.5t-101.5 -66.5t-116 -26.5q-68 0 -123 24.5t-102 53.5t-92 53.5t-92 24.5q-66 0 -123 -37t-127 -115z" />
<glyph unicode="&#xa1;" horiz-adv-x="544" d="M127 971q0 68 37.5 104.5t109.5 36.5t111 -37t39 -104q0 -68 -39 -106t-111 -38t-109.5 38t-37.5 106zM131 -389l53 1020v24h174v-24l56 -1020v-21h-283v21z" />
<glyph unicode="&#xa2;" horiz-adv-x="1058" d="M82 553q0 522 463 567v232h182v-232q119 -6 217 -28v-228q-74 12 -145.5 19.5t-136.5 7.5q-156 0 -225.5 -80t-69.5 -256q0 -180 67.5 -260t224.5 -80q84 0 148.5 5t136.5 20v-226q-43 -10 -100.5 -18t-116.5 -12v-230h-182v232q-463 43 -463 567z" />
<glyph unicode="&#xa3;" horiz-adv-x="1392" d="M92 0v250h309v399h-309v221h309v191q0 240 129 355.5t404 115.5q88 0 174 -13.5t195 -41.5l-15 -232q-92 23 -173 33t-146 10q-152 0 -214.5 -52t-62.5 -175v-191h430v-221h-430v-401h582v-248h-1182z" />
<glyph unicode="&#xa4;" horiz-adv-x="1288" d="M104 334l113 110l92 66q-92 98 -92 248q0 147 92 246l-92 67l-113 111l115 114l113 -112l76 -107q100 53 237 53q135 0 236 -53l77 107l111 112l115 -114l-113 -111l-94 -67q92 -98 92 -246q0 -147 -92 -246l94 -68l113 -110l-115 -115l-111 113l-77 104 q-100 -53 -236 -53q-137 0 -237 53l-76 -104l-113 -113zM395 758q0 -109 67.5 -166t182.5 -57q113 0 179.5 56t66.5 167q0 109 -66.5 165t-179.5 56q-115 0 -182.5 -56t-67.5 -165z" />
<glyph unicode="&#xa5;" horiz-adv-x="1521" d="M59 1516h316l319 -611l62 -147h18l64 147l319 611h313l-456 -832h274v-178h-375v-162h375v-180h-375v-164h-290v164h-420v180h420v162h-420v178h313z" />
<glyph unicode="&#xa6;" horiz-adv-x="600" d="M166 418h268v-869h-268v869zM166 786v869h268v-869h-268z" />
<glyph unicode="&#xa7;" horiz-adv-x="1101" d="M111 27v198q115 -25 214 -38t189 -13q211 0 211 131q0 70 -53.5 99.5t-151.5 46.5q-66 8 -136.5 22t-128.5 48t-96 97.5t-38 172.5q0 66 21.5 118t60.5 92q-37 35 -59.5 86.5t-22.5 126.5q0 160 120.5 251t331.5 91q41 0 81 -2t84 -7t97.5 -13t118.5 -18l-8 -216 q-221 49 -344 50q-209 0 -209 -127q0 -72 62.5 -98.5t175.5 -45.5q80 -12 147.5 -33.5t116.5 -59.5t75.5 -95t26.5 -141q0 -139 -79 -222q39 -35 59 -85t20 -119q0 -166 -120 -256.5t-349 -90.5q-86 0 -190.5 12.5t-226.5 37.5zM391 811q0 -41 13.5 -68.5t38 -46t58.5 -31 t74 -22.5q23 -6 60 -15.5t57 -19.5q35 41 35 105q0 86 -45 121.5t-123 52.5q-23 6 -61.5 14t-59.5 19q-47 -43 -47 -109z" />
<glyph unicode="&#xa8;" horiz-adv-x="1058" d="M109 1440q0 76 35.5 109.5t111.5 33.5q78 0 112.5 -36t34.5 -107q0 -76 -34.5 -110t-112.5 -34q-76 0 -111.5 34t-35.5 110zM633 1440q0 76 36 109.5t111 33.5q78 0 113 -36t35 -107q0 -76 -35 -110t-113 -34q-76 0 -111.5 34t-35.5 110z" />
<glyph unicode="&#xa9;" horiz-adv-x="1699" d="M90 758q0 174 54.5 317.5t153.5 246.5t239.5 159.5t312.5 56.5t312.5 -56.5t239.5 -159.5t153.5 -246.5t54.5 -317.5t-54.5 -317.5t-153.5 -247t-239.5 -160t-312.5 -56.5t-312.5 56.5t-239.5 160t-153.5 247t-54.5 317.5zM244 758q0 -143 42 -261t120.5 -201t190.5 -128 t253 -45t252.5 45t190.5 128t121 200.5t42 261.5q0 143 -42 261t-121 201t-190.5 129t-252.5 46t-253 -46t-190.5 -129t-120.5 -201t-42 -261zM500 752q0 211 98 316.5t283 105.5q47 0 95 -5.5t87 -15.5v-149q-92 18 -162 18q-119 0 -172 -65.5t-53 -202.5q0 -139 54 -203 t167 -64q70 0 168 19v-150q-39 -10 -87 -16t-97 -6q-184 0 -282.5 104.5t-98.5 313.5z" />
<glyph unicode="&#xaa;" horiz-adv-x="954" d="M78 948q0 109 82 169.5t239 70.5l203 12v19q0 45 -7 73.5t-25.5 45t-52.5 21.5t-85 5q-49 0 -117.5 -5t-148.5 -16l-14 154q174 31 313 31q197 0 281.5 -60.5t84.5 -193.5v-553h-194l-12 96h-9q-70 -49 -141 -76.5t-143 -27.5q-117 0 -185.5 64.5t-68.5 170.5zM307 965 q0 -91 111 -91q76 0 184 54v141l-106 -6q-106 -6 -147.5 -28.5t-41.5 -69.5z" />
<glyph unicode="&#xab;" horiz-adv-x="1394" d="M61 549v8l369 487h291l-369 -487v-8l369 -488h-291zM657 549v8l369 487h291l-369 -487v-8l369 -488h-291z" />
<glyph unicode="&#xac;" horiz-adv-x="1728" d="M111 659v234h1476v-682h-276v448h-1200z" />
<glyph unicode="&#xad;" horiz-adv-x="1013" d="M123 465v217h768v-217h-768z" />
<glyph unicode="&#xae;" horiz-adv-x="1452" d="M98 915q0 137 46 253t129 199t198 129t254 46t256 -46t200 -129t129 -198.5t46 -253.5q0 -137 -46 -251.5t-129 -197.5t-200 -129t-256 -46t-254 46t-198 129t-129 197.5t-46 251.5zM227 915q0 -113 36 -206t100.5 -159.5t156.5 -103t205 -36.5t206 36.5t158.5 103 t101.5 160t36 205.5q0 113 -36 206t-101.5 160t-158.5 103.5t-206 36.5t-205 -36.5t-156.5 -103.5t-100.5 -160t-36 -206zM502 596v661q104 12 194 13q152 0 223.5 -52.5t71.5 -160.5q0 -152 -131 -193l-2 -6l152 -262h-129l-133 235h-123v-235h-123zM625 932q10 -2 34.5 -2 h40.5q88 0 127 29.5t39 95.5q0 59 -34.5 89t-120.5 30h-42t-44 -3v-239z" />
<glyph unicode="&#xaf;" horiz-adv-x="1021" d="M117 1319v190h755v-190h-755z" />
<glyph unicode="&#xb0;" horiz-adv-x="976" d="M74 1147q0 82 31.5 152.5t87 122t131 80t165.5 28.5t166 -28.5t131.5 -80t86 -122t30.5 -152.5t-30.5 -151.5t-86 -121t-131.5 -80t-166 -28.5t-165.5 28.5t-131 80t-87 121t-31.5 151.5zM254 1147q0 -100 62 -162.5t173 -62.5t171.5 62.5t60.5 162.5q0 102 -60.5 164.5 t-171.5 62.5t-173 -62.5t-62 -164.5z" />
<glyph unicode="&#xb1;" horiz-adv-x="1105" d="M127 780v187h332v333h186v-333h332v-187h-332v-323h-186v323h-332zM129 139v187h850v-187h-850z" />
<glyph unicode="&#xb2;" horiz-adv-x="958" d="M70 616v168q0 143 81.5 242.5t268.5 187.5q63 29 104 53.5t65.5 46t34 44t9.5 47.5q0 133 -213 133q-59 0 -129 -9t-166 -28l-25 201q113 23 200 34t165 11q410 0 409 -322q0 -117 -71.5 -202.5t-224.5 -157.5q-115 -59 -160 -106.5t-45 -102.5v-39h501v-201h-804z" />
<glyph unicode="&#xb3;" horiz-adv-x="911" d="M84 1720q57 12 141 20.5t150 8.5q217 0 326.5 -80t109.5 -233q0 -86 -40 -148.5t-114 -95.5q176 -66 177 -268q0 -158 -113 -242t-330 -84q-84 0 -168 7t-137 18v208h12q20 -4 51 -8t64 -7t65.5 -5t57.5 -2q143 0 200.5 36t57.5 111q0 74 -59.5 108t-204.5 34h-111v166 h109q127 0 182 33.5t55 105.5t-50 104.5t-173 32.5q-41 0 -106.5 -6t-137.5 -16h-12z" />
<glyph unicode="&#xb4;" horiz-adv-x="565" d="M80 1264l139 383h291l-227 -400z" />
<glyph unicode="&#xb5;" horiz-adv-x="1378" d="M162 -451v1557h284v-735q0 -174 140 -174q76 0 157.5 27.5t178.5 68.5v813h284v-1106h-237l-19 131h-8q-80 -41 -139.5 -69.5t-112.5 -47t-106.5 -26.5t-118.5 -8h-19v-431h-284z" />
<glyph unicode="&#xb6;" horiz-adv-x="1310" d="M70 1034q0 137 34.5 231.5t98 152t153.5 83t203 25.5q63 0 133 -5t142 -16v-1505h-136v545q-39 -2 -72.5 -2h-68.5q-113 0 -203 25.5t-153.5 83t-97 151.5t-33.5 231zM948 0v1505h174v-1505h-174z" />
<glyph unicode="&#xb7;" horiz-adv-x="540" d="M106 758q0 86 39 123t125 37t125 -38t39 -122q0 -160 -164 -160q-86 0 -125 37t-39 123z" />
<glyph unicode="&#xb8;" horiz-adv-x="638" d="M74 -254q35 -10 75.5 -16t77.5 -6q61 0 87 21.5t26 66.5t-32 106.5t-105 151.5h182q43 -53 71.5 -94.5t46 -74t23.5 -62t6 -60.5q0 -111 -68.5 -170.5t-189.5 -59.5q-43 0 -96 7.5t-104 17.5v172z" />
<glyph unicode="&#xb9;" horiz-adv-x="733" d="M31 1511l2 29l375 193h178v-1119h-244v863l-262 -93h-17z" />
<glyph unicode="&#xba;" horiz-adv-x="1005" d="M82 1118q0 209 109.5 310.5t312.5 101.5q201 0 310.5 -101.5t109.5 -310.5t-109.5 -310t-310.5 -101q-203 0 -312.5 101t-109.5 310zM311 1118q0 -72 11.5 -119t34 -74.5t59.5 -37.5t88 -10t87 10t58.5 37.5t33.5 75t11 118.5q0 72 -11 119t-33.5 74.5t-58.5 39t-87 11.5 t-88 -11.5t-59.5 -39t-34 -74.5t-11.5 -119z" />
<glyph unicode="&#xbb;" horiz-adv-x="1394" d="M78 61l368 488v8l-368 487h291l366 -487v-8l-366 -488h-291zM674 61l368 488v8l-368 487h291l366 -487v-8l-366 -488h-291z" />
<glyph unicode="&#xbc;" horiz-adv-x="2244" d="M53 1307l2 28l375 193h178v-1118h-243v862l-263 -92h-16zM528 0l709 1516h246l-707 -1516h-248zM1227 379l391 743l24 6l205 -18l19 -43l-385 -649h301l59 317h168v-317h172v-189h-172v-229h-242v229h-505z" />
<glyph unicode="&#xbd;" horiz-adv-x="2287" d="M53 1307l2 28l375 193h178v-1118h-243v862l-263 -92h-16zM528 0l709 1516h246l-707 -1516h-248zM1382 2v168q0 70 19.5 129t61.5 111.5t108.5 98.5t161.5 91q63 31 105 54.5t65.5 45t33 44t9.5 47.5q0 133 -211 133q-119 0 -297 -37l-25 200q219 45 365 46 q410 0 409 -322q0 -117 -69.5 -201t-227.5 -159q-57 -31 -96 -57.5t-63.5 -51.5t-34.5 -49.5t-10 -50.5v-39h501v-201h-805z" />
<glyph unicode="&#xbe;" horiz-adv-x="2381" d="M109 1516q57 12 141 20t149 8q217 0 327 -80t110 -233q0 -86 -40 -148.5t-114 -95.5q176 -66 176 -268q0 -158 -112.5 -242t-329.5 -84q-84 0 -168 7.5t-137 17.5v209h12q20 -4 51 -8.5t63.5 -7.5t65.5 -5t57 -2q143 0 200.5 36t57.5 112q0 74 -59 107.5t-205 33.5h-110 v166h108q127 0 182.5 33.5t55.5 105.5t-50.5 104.5t-172.5 32.5q-41 0 -106.5 -6t-137.5 -16h-12zM676 0l708 1516h246l-706 -1516h-248zM1370 379l391 743l25 6l205 -18l18 -43l-385 -649h301l60 317h167v-317h172v-189h-172v-229h-241v229h-506z" />
<glyph unicode="&#xbf;" horiz-adv-x="950" d="M59 -20q0 96 33 167.5t87 123t126 84t152 48.5l10 252v33h190v-33l21 -376q-68 -14 -132.5 -36t-114.5 -53.5t-79.5 -75.5t-29.5 -106q0 -59 20 -99t55 -64.5t83 -35t102 -10.5q76 0 153.5 11.5t141.5 27.5l16 -213q-88 -23 -176 -35t-185 -12q-102 0 -189 23.5 t-149.5 73t-98.5 125t-36 180.5zM406 979q0 68 39.5 104.5t109.5 36.5q72 0 111 -36.5t39 -104.5q0 -70 -39 -106.5t-111 -36.5q-70 0 -109.5 36.5t-39.5 106.5z" />
<glyph unicode="&#xc0;" horiz-adv-x="1472" d="M4 0v16l516 1500h432l516 -1500v-16h-282l-137 395h-627l-135 -395h-283zM387 1985h295l141 -320l-209 -25zM492 625h487l-137 401l-94 285h-25l-92 -285z" />
<glyph unicode="&#xc1;" horiz-adv-x="1472" d="M4 0v16l516 1500h432l516 -1500v-16h-282l-137 395h-627l-135 -395h-283zM492 625h487l-137 401l-94 285h-25l-92 -285zM621 1657l141 328h295l-226 -345z" />
<glyph unicode="&#xc2;" horiz-adv-x="1472" d="M4 0v16l516 1500h432l516 -1500v-16h-282l-137 395h-627l-135 -395h-283zM358 1649v200l379 156l383 -156v-200l-381 155zM492 625h487l-137 401l-94 285h-25l-92 -285z" />
<glyph unicode="&#xc3;" horiz-adv-x="1472" d="M4 0v16l516 1500h432l516 -1500v-16h-282l-137 395h-627l-135 -395h-283zM293 1757q66 104 144.5 157.5t154.5 53.5q51 0 98 -13t93 -28.5t93.5 -28t96.5 -12.5q47 0 92 17.5t98 60.5l47 -61q-61 -104 -143 -157.5t-160 -53.5q-49 0 -96 12t-93 27.5t-93 28t-95 12.5 q-47 0 -92 -16.5t-96 -57.5zM492 625h487l-137 401l-94 285h-25l-92 -285z" />
<glyph unicode="&#xc4;" horiz-adv-x="1472" d="M4 0v16l516 1500h432l516 -1500v-16h-282l-137 395h-627l-135 -395h-283zM287 1819q0 84 39 121.5t125 37.5t124.5 -38.5t38.5 -120.5q0 -84 -38.5 -122t-124.5 -38t-125 37t-39 123zM492 625h487l-137 401l-94 285h-25l-92 -285zM858 1819q0 84 38 121.5t124 37.5 t125 -38.5t39 -120.5q0 -84 -39 -122t-125 -38t-124 37t-38 123z" />
<glyph unicode="&#xc5;" horiz-adv-x="1472" d="M4 0v16l516 1500h432l516 -1500v-16h-282l-137 395h-627l-135 -395h-283zM473 1823q0 49 19.5 92t55.5 73.5t84 48t105 17.5t105.5 -17.5t83.5 -48t54 -73.5t19 -92q0 -100 -73.5 -165t-188.5 -65q-57 0 -105 17.5t-84 48.5t-55.5 73t-19.5 91zM492 625h487l-137 401 l-94 285h-25l-92 -285zM598 1823q0 -121 139 -121q72 0 104.5 30.5t32.5 90.5q0 59 -32.5 90t-104.5 31q-139 0 -139 -121z" />
<glyph unicode="&#xc6;" horiz-adv-x="1945" d="M-2 0v18l612 1498h1223v-230h-659l22 -407h596v-230h-582l25 -420h625v-229h-914l-16 391h-488l-159 -391h-285zM539 629h381l-27 676h-78z" />
<glyph unicode="&#xc7;" horiz-adv-x="1226" d="M90 756q0 395 178 588.5t539 193.5q70 0 157 -8t191 -25v-235q-57 8 -102 13t-82 8t-69 5t-62 2q-123 0 -210 -28.5t-140.5 -93t-78 -168t-24.5 -252.5q0 -147 24.5 -250t77 -167.5t136.5 -93t204 -28.5q33 0 78 3t90 7t87 11.5t71 13.5v-234q-66 -16 -146.5 -26 t-154.5 -15q43 -61 59.5 -106t16.5 -92q0 -111 -68.5 -170.5t-189.5 -59.5q-43 0 -96.5 7.5t-104.5 17.5v172q35 -10 76 -16t78 -6q61 0 86.5 21.5t25.5 66.5q0 35 -17.5 77.5t-57.5 98.5q-571 76 -572 768z" />
<glyph unicode="&#xc8;" horiz-adv-x="1316" d="M160 0v1516h1050v-230h-759v-407h696v-230h-696v-420h778v-229h-1069zM385 1985h295l141 -320l-209 -25z" />
<glyph unicode="&#xc9;" horiz-adv-x="1316" d="M160 0v1516h1050v-230h-759v-407h696v-230h-696v-420h778v-229h-1069zM565 1657l142 328h294l-225 -345z" />
<glyph unicode="&#xca;" horiz-adv-x="1316" d="M160 0v1516h1050v-230h-759v-407h696v-230h-696v-420h778v-229h-1069zM326 1649v200l379 156l382 -156v-200l-380 155z" />
<glyph unicode="&#xcb;" horiz-adv-x="1316" d="M160 0v1516h1050v-230h-759v-407h696v-230h-696v-420h778v-229h-1069zM250 1819q0 84 39 121.5t125 37.5t125 -38.5t39 -120.5q0 -84 -39 -122t-125 -38t-125 37t-39 123zM821 1819q0 84 38 121.5t124 37.5t125 -38.5t39 -120.5q0 -84 -39 -122t-125 -38t-124 37t-38 123 z" />
<glyph unicode="&#xcc;" horiz-adv-x="610" d="M-6 1985h295l141 -320l-209 -25zM160 0v1516h291v-1516h-291z" />
<glyph unicode="&#xcd;" horiz-adv-x="610" d="M160 0v1516h291v-1516h-291zM190 1657l142 328h295l-226 -345z" />
<glyph unicode="&#xce;" horiz-adv-x="610" d="M-72 1649v200l379 156l383 -156v-200l-381 155zM160 0v1516h291v-1516h-291z" />
<glyph unicode="&#xcf;" horiz-adv-x="610" d="M-139 1819q0 84 39 121.5t125 37.5t124.5 -38.5t38.5 -120.5q0 -84 -38.5 -122t-124.5 -38t-125 37t-39 123zM160 0v1516h291v-1516h-291zM432 1819q0 84 38 121.5t124 37.5t125 -38.5t39 -120.5q0 -84 -39 -122t-125 -38t-124 37t-38 123z" />
<glyph unicode="&#xd0;" horiz-adv-x="1587" d="M8 649v223h189v639q141 10 267 16.5t214 6.5q213 0 368.5 -46t256 -141.5t148.5 -242t48 -348.5q0 -207 -50 -353.5t-156.5 -241.5t-273.5 -139.5t-401 -44.5q-121 0 -235.5 7.5t-185.5 21.5v643h-189zM485 229q66 -10 121.5 -14t116.5 -4q129 0 219 29.5t148.5 95 t85 170t26.5 252.5q0 147 -26.5 249.5t-85 168t-150.5 95t-223 29.5q-47 0 -107.5 -4t-124.5 -10v-414h299v-223h-299v-420z" />
<glyph unicode="&#xd1;" horiz-adv-x="1640" d="M160 0v1516h237l690 -908l121 -176h17v1084h256v-1516h-238l-684 897l-127 184h-16v-1081h-256zM375 1757q66 104 144.5 157.5t154.5 53.5q51 0 98 -13t93 -28.5t93.5 -28t96.5 -12.5q47 0 92 17.5t98 60.5l47 -61q-61 -104 -143 -157.5t-160 -53.5q-49 0 -96 12 t-93 27.5t-93.5 28t-94.5 12.5t-92 -16.5t-96 -57.5z" />
<glyph unicode="&#xd2;" horiz-adv-x="1589" d="M88 756q0 387 181.5 583.5t525.5 196.5t525 -197.5t181 -582.5q0 -383 -181 -579.5t-525 -196.5t-525.5 195.5t-181.5 580.5zM385 756q0 -145 23.5 -247.5t72.5 -168.5t127 -95.5t187 -29.5t186.5 29.5t126.5 95.5t72.5 168t23.5 248q0 289 -98 416.5t-311 127.5 q-109 0 -186 -30.5t-127 -96t-73.5 -169t-23.5 -248.5zM449 1985h294l142 -320l-209 -25z" />
<glyph unicode="&#xd3;" horiz-adv-x="1589" d="M88 756q0 387 181.5 583.5t525.5 196.5t525 -197.5t181 -582.5q0 -383 -181 -579.5t-525 -196.5t-525.5 195.5t-181.5 580.5zM385 756q0 -145 23.5 -247.5t72.5 -168.5t127 -95.5t187 -29.5t186.5 29.5t126.5 95.5t72.5 168t23.5 248q0 289 -98 416.5t-311 127.5 q-109 0 -186 -30.5t-127 -96t-73.5 -169t-23.5 -248.5zM680 1657l141 328h295l-225 -345z" />
<glyph unicode="&#xd4;" horiz-adv-x="1589" d="M88 756q0 387 181.5 583.5t525.5 196.5t525 -197.5t181 -582.5q0 -383 -181 -579.5t-525 -196.5t-525.5 195.5t-181.5 580.5zM385 756q0 -145 23.5 -247.5t72.5 -168.5t127 -95.5t187 -29.5t186.5 29.5t126.5 95.5t72.5 168t23.5 248q0 289 -98 416.5t-311 127.5 q-109 0 -186 -30.5t-127 -96t-73.5 -169t-23.5 -248.5zM412 1649v200l379 156l383 -156v-200l-381 155z" />
<glyph unicode="&#xd5;" horiz-adv-x="1589" d="M88 756q0 387 181.5 583.5t525.5 196.5t525 -197.5t181 -582.5q0 -383 -181 -579.5t-525 -196.5t-525.5 195.5t-181.5 580.5zM350 1757q66 104 144.5 157.5t154.5 53.5q51 0 98.5 -13t93.5 -28.5t93 -28t96 -12.5q47 0 92 17.5t99 60.5l47 -61q-61 -104 -143.5 -157.5 t-159.5 -53.5q-49 0 -96.5 12t-93.5 27.5t-93 28t-94 12.5t-92 -16.5t-97 -57.5zM385 756q0 -145 23.5 -247.5t72.5 -168.5t127 -95.5t187 -29.5t186.5 29.5t126.5 95.5t72.5 168t23.5 248q0 289 -98 416.5t-311 127.5q-109 0 -186 -30.5t-127 -96t-73.5 -169t-23.5 -248.5z " />
<glyph unicode="&#xd6;" horiz-adv-x="1589" d="M88 756q0 387 181.5 583.5t525.5 196.5t525 -197.5t181 -582.5q0 -383 -181 -579.5t-525 -196.5t-525.5 195.5t-181.5 580.5zM336 1819q0 84 39 121.5t125 37.5t125 -38.5t39 -120.5q0 -84 -39 -122t-125 -38t-125 37t-39 123zM385 756q0 -145 23.5 -247.5t72.5 -168.5 t127 -95.5t187 -29.5t186.5 29.5t126.5 95.5t72.5 168t23.5 248q0 289 -98 416.5t-311 127.5q-109 0 -186 -30.5t-127 -96t-73.5 -169t-23.5 -248.5zM907 1819q0 84 38 121.5t124 37.5t125 -38.5t39 -120.5q0 -84 -39 -122t-125 -38t-124 37t-38 123z" />
<glyph unicode="&#xd7;" horiz-adv-x="1005" d="M96 483l275 275l-275 274l131 133l275 -274l274 274l133 -133l-274 -274l274 -275l-131 -131l-276 275l-275 -275z" />
<glyph unicode="&#xd8;" horiz-adv-x="1593" d="M51 0l185 219q-145 195 -146 537q0 387 181.5 583.5t525.5 196.5q268 0 440 -125l86 105h217l-184 -222q72 -98 109.5 -231t37.5 -307q0 -383 -181 -579.5t-525 -196.5q-270 0 -443 122l-86 -102h-217zM387 756q0 -195 41 -310l643 768q-94 86 -274 86 q-213 0 -311.5 -126.5t-98.5 -417.5zM520 301q95 -86 277 -86q109 0 186.5 29.5t127.5 95.5t73.5 168t23.5 248q0 190 -43 311z" />
<glyph unicode="&#xd9;" horiz-adv-x="1605" d="M145 621v897h289v-902q0 -209 90 -304t279 -95q188 0 277 94.5t89 304.5v902h291v-897q0 -166 -35.5 -287t-113.5 -200t-203 -116.5t-305 -37.5t-305 37.5t-204 116.5t-114 200t-35 287zM463 1985h295l141 -320l-209 -25z" />
<glyph unicode="&#xda;" horiz-adv-x="1605" d="M145 621v897h289v-902q0 -209 90 -304t279 -95q188 0 277 94.5t89 304.5v902h291v-897q0 -166 -35.5 -287t-113.5 -200t-203 -116.5t-305 -37.5t-305 37.5t-204 116.5t-114 200t-35 287zM664 1657l141 328h295l-226 -345z" />
<glyph unicode="&#xdb;" horiz-adv-x="1605" d="M145 621v897h289v-902q0 -209 90 -304t279 -95q188 0 277 94.5t89 304.5v902h291v-897q0 -166 -35.5 -287t-113.5 -200t-203 -116.5t-305 -37.5t-305 37.5t-204 116.5t-114 200t-35 287zM414 1649v200l379 156l383 -156v-200l-381 155z" />
<glyph unicode="&#xdc;" horiz-adv-x="1605" d="M145 621v897h289v-902q0 -209 90 -304t279 -95q188 0 277 94.5t89 304.5v902h291v-897q0 -166 -35.5 -287t-113.5 -200t-203 -116.5t-305 -37.5t-305 37.5t-204 116.5t-114 200t-35 287zM346 1819q0 84 39 121.5t125 37.5t125 -38.5t39 -120.5q0 -84 -39 -122t-125 -38 t-125 37t-39 123zM918 1819q0 84 37.5 121.5t123.5 37.5t125 -38.5t39 -120.5q0 -84 -39 -122t-125 -38t-123.5 37t-37.5 123z" />
<glyph unicode="&#xdd;" horiz-adv-x="1400" d="M-6 1516h315l320 -611l61 -147h19l63 147l320 611h313l-557 -1014v-502h-291v494zM590 1657l141 328h295l-225 -345z" />
<glyph unicode="&#xde;" horiz-adv-x="1398" d="M160 0v1516h291v-240q37 2 74.5 3t74.5 1q385 0 561 -125t176 -399q0 -137 -42 -235.5t-131 -162t-227 -94.5t-331 -31h-76.5t-78.5 5v-238h-291zM451 485q8 -2 30.5 -4t50 -3t53.5 -2t42 -1q121 0 201.5 13.5t129 45t67.5 86t19 136.5t-20 136t-69.5 87t-130.5 46 t-203 13q-14 0 -38 -1t-49.5 -2t-48 -3t-34.5 -4v-543z" />
<glyph unicode="&#xdf;" horiz-adv-x="1505" d="M137 0v1184q0 248 143.5 363.5t436.5 115.5t439.5 -115.5t146.5 -363.5v-260h-238q-213 0 -213 -127q0 -72 60.5 -98.5t177.5 -43.5q80 -12 147.5 -33.5t115.5 -59.5t75.5 -96t27.5 -142q0 -166 -119.5 -256.5t-349.5 -90.5q-86 0 -191.5 12.5t-226.5 37.5v198 q225 -51 404 -51q209 0 209 131q0 70 -53.5 99.5t-151.5 46.5q-66 8 -135.5 22t-128 48t-96 97.5t-37.5 172.5q0 154 115.5 244.5t320.5 94.5v54q0 135 -72 195.5t-225 60.5q-154 0 -225.5 -59.5t-71.5 -196.5v-1184h-285z" />
<glyph unicode="&#xe0;" horiz-adv-x="1161" d="M70 297q0 164 101 249t318 101l261 19v36q0 61 -10.5 101.5t-38 65t-75.5 34.5t-124 10q-72 0 -162 -9t-182 -27l-19 202q229 41 412 41q248 0 365.5 -90t117.5 -280v-750h-233l-27 137h-16q-178 -147 -377 -147q-154 0 -232.5 80t-78.5 227zM262 1653h299l137 -379 l-209 -21zM356 328q1 -138 142 -138q61 0 128.5 27t123.5 66v227l-175 -16q-123 -10 -171 -47t-48 -119z" />
<glyph unicode="&#xe1;" horiz-adv-x="1161" d="M70 297q0 164 101 249t318 101l261 19v36q0 61 -10.5 101.5t-38 65t-75.5 34.5t-124 10q-72 0 -162 -9t-182 -27l-19 202q229 41 412 41q248 0 365.5 -90t117.5 -280v-750h-233l-27 137h-16q-178 -147 -377 -147q-154 0 -232.5 80t-78.5 227zM356 328q1 -138 142 -138 q61 0 128.5 27t123.5 66v227l-175 -16q-123 -10 -171 -47t-48 -119zM475 1264l139 383h291l-227 -400z" />
<glyph unicode="&#xe2;" horiz-adv-x="1161" d="M70 297q0 164 101 249t318 101l261 19v36q0 61 -10.5 101.5t-38 65t-75.5 34.5t-124 10q-72 0 -162 -9t-182 -27l-19 202q229 41 412 41q248 0 365.5 -90t117.5 -280v-750h-233l-27 137h-16q-178 -147 -377 -147q-154 0 -232.5 80t-78.5 227zM211 1268v198l377 156 l385 -156v-198l-381 153zM356 328q1 -138 142 -138q61 0 128.5 27t123.5 66v227l-175 -16q-123 -10 -171 -47t-48 -119z" />
<glyph unicode="&#xe3;" horiz-adv-x="1161" d="M70 297q0 164 101 249t318 101l261 19v36q0 61 -10.5 101.5t-38 65t-75.5 34.5t-124 10q-72 0 -162 -9t-182 -27l-19 202q229 41 412 41q248 0 365.5 -90t117.5 -280v-750h-233l-27 137h-16q-178 -147 -377 -147q-154 0 -232.5 80t-78.5 227zM135 1372q63 104 142 155.5 t155 51.5q51 0 98.5 -13.5t93.5 -30.5t92 -30.5t95 -13.5q47 0 91 17.5t97 60.5l52 -66q-63 -102 -143.5 -154.5t-157.5 -52.5q-49 0 -96.5 13.5t-94.5 30t-94 29.5t-94 13t-91 -17t-94 -58zM356 328q1 -138 142 -138q61 0 128.5 27t123.5 66v227l-175 -16 q-123 -10 -171 -47t-48 -119z" />
<glyph unicode="&#xe4;" horiz-adv-x="1161" d="M70 297q0 164 101 249t318 101l261 19v36q0 61 -10.5 101.5t-38 65t-75.5 34.5t-124 10q-72 0 -162 -9t-182 -27l-19 202q229 41 412 41q248 0 365.5 -90t117.5 -280v-750h-233l-27 137h-16q-178 -147 -377 -147q-154 0 -232.5 80t-78.5 227zM178 1440q0 76 36 109.5 t112 33.5q78 0 112.5 -36t34.5 -107q0 -76 -34.5 -110t-112.5 -34q-76 0 -112 34t-36 110zM356 328q1 -138 142 -138q61 0 128.5 27t123.5 66v227l-175 -16q-123 -10 -171 -47t-48 -119zM702 1440q0 76 36 109.5t112 33.5q78 0 112.5 -36t34.5 -107q0 -76 -34.5 -110 t-112.5 -34q-76 0 -112 34t-36 110z" />
<glyph unicode="&#xe5;" horiz-adv-x="1161" d="M70 297q0 164 101 249t318 101l261 19v36q0 61 -10.5 101.5t-38 65t-75.5 34.5t-124 10q-72 0 -162 -9t-182 -27l-19 202q229 41 412 41q248 0 365.5 -90t117.5 -280v-750h-233l-27 137h-16q-178 -147 -377 -147q-154 0 -232.5 80t-78.5 227zM315 1444q0 102 75 166.5 t192 64.5t190.5 -64.5t73.5 -166.5q0 -100 -73.5 -163.5t-190.5 -63.5q-57 0 -106.5 16t-84.5 47t-55.5 73t-20.5 91zM356 328q1 -138 142 -138q61 0 128.5 27t123.5 66v227l-175 -16q-123 -10 -171 -47t-48 -119zM446 1444q1 -119 136 -119q72 0 103.5 30.5t31.5 88.5 q0 59 -32 90t-103 31q-135 0 -136 -121z" />
<glyph unicode="&#xe6;" horiz-adv-x="1851" d="M70 299q0 162 102 246t320 100l260 19v63q0 53 -13.5 89t-43 57.5t-80 30.5t-126.5 9q-68 0 -154.5 -9t-174.5 -27l-21 202q117 23 217.5 32t202.5 9q272 0 359 -157h16q61 76 153.5 115.5t219.5 39.5q229 0 345.5 -124t116.5 -365q0 -53 -4 -91t-12 -69h-713 q8 -147 77 -210.5t218 -63.5q88 0 192.5 13t190.5 38l11 -205q-92 -31 -204 -48.5t-216 -17.5q-299 0 -426 189h-15q-147 -92 -263 -133t-226 -41q-150 0 -229.5 81t-79.5 228zM358 328q1 -140 144 -140q57 0 123.5 26t130.5 71q0 2 -1 36.5t-2 75.5t-1 76v39l-177 -16 q-123 -10 -170 -48t-47 -120zM1038 621h478q-4 160 -54.5 227t-167.5 67q-123 0 -185 -70.5t-71 -223.5z" />
<glyph unicode="&#xe7;" horiz-adv-x="1028" d="M82 553q0 571 553 571q78 0 161 -8t148 -24v-228q-74 12 -145.5 19.5t-136.5 7.5q-156 0 -225.5 -80t-69.5 -256q0 -180 67.5 -260t224.5 -80q84 0 148.5 5t136.5 20v-226q-47 -12 -112.5 -20t-135.5 -10q47 -66 63.5 -111t16.5 -94q0 -111 -68.5 -170.5t-189.5 -59.5 q-43 0 -96 7.5t-105 17.5v172q35 -10 76 -16t78 -6q61 0 87 21.5t26 66.5q0 35 -18.5 77.5t-59.5 102.5q-424 57 -424 561z" />
<glyph unicode="&#xe8;" horiz-adv-x="1175" d="M84 543q0 287 138 434t407 147q465 0 465 -493q0 -49 -3.5 -88t-13.5 -74h-712q6 -76 25.5 -127t55 -83t89 -45t129.5 -13q86 0 189 13t189 38l11 -207q-92 -29 -203 -46t-215 -17q-551 0 -551 561zM268 1653h299l138 -379l-209 -21zM365 633h477q-4 156 -56.5 222.5 t-167.5 66.5q-121 0 -182 -69t-71 -220z" />
<glyph unicode="&#xe9;" horiz-adv-x="1175" d="M84 543q0 287 138 434t407 147q465 0 465 -493q0 -49 -3.5 -88t-13.5 -74h-712q6 -76 25.5 -127t55 -83t89 -45t129.5 -13q86 0 189 13t189 38l11 -207q-92 -29 -203 -46t-215 -17q-551 0 -551 561zM365 633h477q-4 156 -56.5 222.5t-167.5 66.5q-121 0 -182 -69 t-71 -220zM526 1264l140 383h290l-227 -400z" />
<glyph unicode="&#xea;" horiz-adv-x="1175" d="M84 543q0 287 138 434t407 147q465 0 465 -493q0 -49 -3.5 -88t-13.5 -74h-712q6 -76 25.5 -127t55 -83t89 -45t129.5 -13q86 0 189 13t189 38l11 -207q-92 -29 -203 -46t-215 -17q-551 0 -551 561zM236 1268v198l376 156l385 -156v-198l-381 153zM365 633h477 q-4 156 -56.5 222.5t-167.5 66.5q-121 0 -182 -69t-71 -220z" />
<glyph unicode="&#xeb;" horiz-adv-x="1175" d="M84 543q0 287 138 434t407 147q465 0 465 -493q0 -49 -3.5 -88t-13.5 -74h-712q6 -76 25.5 -127t55 -83t89 -45t129.5 -13q86 0 189 13t189 38l11 -207q-92 -29 -203 -46t-215 -17q-551 0 -551 561zM193 1440q0 76 35.5 109.5t111.5 33.5q78 0 112.5 -36t34.5 -107 q0 -76 -34.5 -110t-112.5 -34q-76 0 -111.5 34t-35.5 110zM365 633h477q-4 156 -56.5 222.5t-167.5 66.5q-121 0 -182 -69t-71 -220zM717 1440q0 76 35.5 109.5t111.5 33.5q78 0 113 -36t35 -107q0 -76 -35 -110t-113 -34q-76 0 -111.5 34t-35.5 110z" />
<glyph unicode="&#xec;" horiz-adv-x="559" d="M-61 1653h299l137 -379l-209 -21zM137 0v1106h285v-1106h-285z" />
<glyph unicode="&#xed;" horiz-adv-x="559" d="M137 0v1106h285v-1106h-285zM180 1264l139 383h291l-227 -400z" />
<glyph unicode="&#xee;" horiz-adv-x="561" d="M-76 1268v198l361 156l366 -156v-198l-364 153zM139 0v1106h285v-1106h-285z" />
<glyph unicode="&#xef;" horiz-adv-x="561" d="M-104 1440q0 76 34.5 109.5t112.5 33.5t112.5 -36t34.5 -107q0 -76 -34.5 -110t-112.5 -34t-112.5 34t-34.5 110zM139 0v1106h285v-1106h-285zM379 1440q0 76 35 109.5t112 33.5q78 0 113 -36t35 -107q0 -76 -35 -110t-113 -34t-112.5 34t-34.5 110z" />
<glyph unicode="&#xf0;" horiz-adv-x="1306" d="M80 551q0 276 142.5 425.5t398.5 149.5q98 0 166.5 -31.5t119.5 -101.5q-41 152 -114 291l-369 -37v178l264 25q-78 104 -174 205h291q29 -35 62.5 -80t70.5 -100l319 32v-178l-221 -22q70 -135 120 -307.5t50 -383.5q0 -315 -144 -475.5t-421 -160.5q-270 0 -415.5 146 t-145.5 425zM367 553q0 -190 63 -272t213 -82q147 0 212 86t65 282q0 158 -67 248t-214 90t-209.5 -81t-62.5 -271z" />
<glyph unicode="&#xf1;" d="M137 0v1106h238l16 -127h12q158 78 268.5 112.5t205.5 34.5q143 0 223 -77.5t80 -227.5v-821h-285v725q0 94 -35 134t-110 40q-66 0 -151 -25.5t-177 -66.5v-807h-285zM215 1372q63 104 142 155.5t155 51.5q51 0 98 -13.5t93.5 -30.5t92.5 -30.5t95 -13.5q47 0 91 17.5 t97 60.5l51 -66q-63 -102 -143 -154.5t-158 -52.5q-49 0 -96 13.5t-94 30t-94 29.5t-94 13t-91.5 -17t-93.5 -58z" />
<glyph unicode="&#xf2;" horiz-adv-x="1286" d="M80 553q0 281 144.5 427t418.5 146t418.5 -146t144.5 -427t-144.5 -427t-418.5 -146t-418.5 146t-144.5 427zM291 1653h299l137 -379l-209 -21zM367 553q0 -193 64.5 -273.5t211.5 -80.5t212 80.5t65 273.5t-64.5 272.5t-212.5 79.5q-147 0 -211.5 -80t-64.5 -272z" />
<glyph unicode="&#xf3;" horiz-adv-x="1286" d="M80 553q0 281 144.5 427t418.5 146t418.5 -146t144.5 -427t-144.5 -427t-418.5 -146t-418.5 146t-144.5 427zM367 553q0 -193 64.5 -273.5t211.5 -80.5t212 80.5t65 273.5t-64.5 272.5t-212.5 79.5q-147 0 -211.5 -80t-64.5 -272zM526 1264l140 383h290l-227 -400z" />
<glyph unicode="&#xf4;" horiz-adv-x="1286" d="M80 553q0 281 144.5 427t418.5 146t418.5 -146t144.5 -427t-144.5 -427t-418.5 -146t-418.5 146t-144.5 427zM260 1268v198l377 156l385 -156v-198l-381 153zM367 553q0 -193 64.5 -273.5t211.5 -80.5t212 80.5t65 273.5t-64.5 272.5t-212.5 79.5q-147 0 -211.5 -80 t-64.5 -272z" />
<glyph unicode="&#xf5;" horiz-adv-x="1286" d="M80 553q0 281 144.5 427t418.5 146t418.5 -146t144.5 -427t-144.5 -427t-418.5 -146t-418.5 146t-144.5 427zM190 1372q63 104 142.5 155.5t154.5 51.5q51 0 98.5 -13.5t93.5 -30.5t92 -30.5t95 -13.5q47 0 91 17.5t98 60.5l51 -66q-63 -102 -143 -154.5t-158 -52.5 q-49 0 -96 13.5t-94.5 30t-94.5 29.5t-94 13t-91 -17t-93 -58zM367 553q0 -193 64.5 -273.5t211.5 -80.5t212 80.5t65 273.5t-64.5 272.5t-212.5 79.5q-147 0 -211.5 -80t-64.5 -272z" />
<glyph unicode="&#xf6;" horiz-adv-x="1286" d="M80 553q0 281 144.5 427t418.5 146t418.5 -146t144.5 -427t-144.5 -427t-418.5 -146t-418.5 146t-144.5 427zM229 1440q0 76 36 109.5t112 33.5q78 0 112.5 -36t34.5 -107q0 -76 -34.5 -110t-112.5 -34q-76 0 -112 34t-36 110zM367 553q0 -193 64.5 -273.5t211.5 -80.5 t212 80.5t65 273.5t-64.5 272.5t-212.5 79.5q-147 0 -211.5 -80t-64.5 -272zM754 1440q0 76 35.5 109.5t111.5 33.5q78 0 113 -36t35 -107q0 -76 -35 -110t-113 -34q-76 0 -111.5 34t-35.5 110z" />
<glyph unicode="&#xf7;" horiz-adv-x="1077" d="M102 666v184h873v-184h-873zM420 401q0 61 34.5 92t90.5 31q53 0 88 -31.5t35 -91.5q0 -63 -35 -95t-88 -32q-55 0 -90 32t-35 95zM420 1108q0 63 34.5 95t90.5 32q53 0 88 -33t35 -94t-35 -93t-88 -32q-55 0 -90 32t-35 93z" />
<glyph unicode="&#xf8;" horiz-adv-x="1298" d="M27 0l163 174q-102 141 -102 379q0 270 139.5 421.5t421.5 151.5q109 0 196 -23.5t154 -66.5l66 70h209l-166 -176q104 -141 104 -377q0 -272 -140 -422.5t-423 -150.5q-215 0 -348 90l-65 -70h-209zM375 553q0 -49 2 -91t10 -77l444 473q-63 47 -182 47 q-82 0 -135 -20.5t-84 -63.5t-43 -109.5t-12 -158.5zM465 246q61 -47 184 -47q82 0 136.5 20.5t86 64.5t44 110.5t12.5 158.5q0 102 -15 168z" />
<glyph unicode="&#xf9;" d="M129 285v821h285v-733q0 -92 31.5 -131t109.5 -39q76 0 163 30.5t171 67.5v805h285v-1106h-240l-16 131h-9q-80 -41 -140 -69.5t-112.5 -47t-105.5 -26.5t-119 -8q-150 0 -226.5 78.5t-76.5 226.5zM303 1653h299l137 -379l-209 -21z" />
<glyph unicode="&#xfa;" d="M129 285v821h285v-733q0 -92 31.5 -131t109.5 -39q76 0 163 30.5t171 67.5v805h285v-1106h-240l-16 131h-9q-80 -41 -140 -69.5t-112.5 -47t-105.5 -26.5t-119 -8q-150 0 -226.5 78.5t-76.5 226.5zM535 1264l139 383h291l-228 -400z" />
<glyph unicode="&#xfb;" d="M129 285v821h285v-733q0 -92 31.5 -131t109.5 -39q76 0 163 30.5t171 67.5v805h285v-1106h-240l-16 131h-9q-80 -41 -140 -69.5t-112.5 -47t-105.5 -26.5t-119 -8q-150 0 -226.5 78.5t-76.5 226.5zM274 1268v198l377 156l385 -156v-198l-381 153z" />
<glyph unicode="&#xfc;" d="M129 285v821h285v-733q0 -92 31.5 -131t109.5 -39q76 0 163 30.5t171 67.5v805h285v-1106h-240l-16 131h-9q-80 -41 -140 -69.5t-112.5 -47t-105.5 -26.5t-119 -8q-150 0 -226.5 78.5t-76.5 226.5zM240 1440q0 76 35.5 109.5t111.5 33.5q78 0 113 -36t35 -107 q0 -76 -35 -110t-113 -34q-76 0 -111.5 34t-35.5 110zM764 1440q0 76 36 109.5t111 33.5q78 0 113 -36t35 -107q0 -76 -35 -110t-113 -34q-76 0 -111.5 34t-35.5 110z" />
<glyph unicode="&#xfd;" horiz-adv-x="1236" d="M18 1075v31h306l229 -619l57 -188h17l57 188l238 619h297v-31l-637 -1526l-267 41l-2 25l162 399zM520 1264l139 383h291l-227 -400z" />
<glyph unicode="&#xfe;" horiz-adv-x="1304" d="M135 -451v2106h285v-660q55 55 142 92t216 37q227 0 335 -134t108 -421q0 -291 -147.5 -440t-461.5 -149q-35 0 -90 6t-102 10v-447h-285zM420 203q53 -16 107 -23.5t85 -7.5q88 0 149.5 14.5t99.5 54.5t55.5 112.5t17.5 189.5t-14.5 190.5t-44 115.5t-77.5 57.5 t-116 15.5q-145 0 -203.5 -89.5t-58.5 -279.5v-350z" />
<glyph unicode="&#xff;" horiz-adv-x="1236" d="M18 1075v31h306l229 -619l57 -188h17l57 188l238 619h297v-31l-637 -1526l-267 41l-2 25l162 399zM209 1440q0 76 36 109.5t111 33.5q78 0 113 -36t35 -107q0 -76 -35 -110t-113 -34q-76 0 -111.5 34t-35.5 110zM733 1440q0 76 36 109.5t112 33.5q78 0 112.5 -36 t34.5 -107q0 -76 -34.5 -110t-112.5 -34q-76 0 -112 34t-36 110z" />
<glyph unicode="&#x152;" horiz-adv-x="2162" d="M88 756q0 383 184.5 580.5t530.5 197.5q131 0 235 -18h1014v-230h-723v-405h666v-228h-666v-424h742v-229h-1033q-108 -18 -235 -18q-346 0 -530.5 196.5t-184.5 577.5zM383 756q0 -145 24.5 -246.5t76 -167.5t132 -95.5t193.5 -29.5q66 0 124 4t105 15v1044 q-98 18 -229 18q-113 0 -192.5 -30.5t-132 -96t-77 -169t-24.5 -246.5z" />
<glyph unicode="&#x153;" horiz-adv-x="2015" d="M80 553q0 281 144.5 427t418.5 146q145 0 248.5 -51t161.5 -145h16q55 94 156.5 144t244.5 50q229 0 346 -123.5t117 -365.5q0 -49 -3 -87t-13 -73h-713q8 -150 78 -212t217 -62q86 0 191.5 13t191.5 38l10 -207q-92 -29 -202.5 -46t-214.5 -17q-147 0 -251 48t-159 140 h-14q-59 -92 -162 -141t-246 -49q-274 0 -418.5 146t-144.5 427zM367 553q0 -193 64.5 -273.5t211.5 -80.5t212 80.5t65 273.5t-64.5 272.5t-212.5 79.5q-147 0 -211.5 -80t-64.5 -272zM1202 627h477q-4 160 -54 227.5t-167 67.5q-123 0 -184.5 -71t-71.5 -224z" />
<glyph unicode="&#x178;" horiz-adv-x="1400" d="M-6 1516h315l320 -611l61 -147h19l63 147l320 611h313l-557 -1014v-502h-291v494zM250 1819q0 84 39 121.5t125 37.5t125 -38.5t39 -120.5q0 -84 -39 -122t-125 -38t-125 37t-39 123zM821 1819q0 84 38 121.5t124 37.5t125 -38.5t39 -120.5q0 -84 -39 -122t-125 -38 t-124 37t-38 123z" />
<glyph unicode="&#x2c6;" horiz-adv-x="974" d="M100 1268v198l377 156l385 -156v-198l-381 153z" />
<glyph unicode="&#x2dc;" horiz-adv-x="1056" d="M61 1372q63 104 142.5 155.5t154.5 51.5q51 0 98.5 -13.5t93.5 -30.5t92 -30.5t95 -13.5q47 0 91 17.5t98 60.5l51 -66q-63 -102 -143 -154.5t-158 -52.5q-49 0 -96.5 13.5t-94.5 30t-94 29.5t-94 13t-91 -17t-93 -58z" />
<glyph unicode="&#x2000;" horiz-adv-x="1027" />
<glyph unicode="&#x2001;" horiz-adv-x="2054" />
<glyph unicode="&#x2002;" horiz-adv-x="1027" />
<glyph unicode="&#x2003;" horiz-adv-x="2054" />
<glyph unicode="&#x2004;" horiz-adv-x="684" />
<glyph unicode="&#x2005;" horiz-adv-x="513" />
<glyph unicode="&#x2006;" horiz-adv-x="342" />
<glyph unicode="&#x2007;" horiz-adv-x="342" />
<glyph unicode="&#x2008;" horiz-adv-x="256" />
<glyph unicode="&#x2009;" horiz-adv-x="410" />
<glyph unicode="&#x200a;" horiz-adv-x="114" />
<glyph unicode="&#x2010;" horiz-adv-x="1013" d="M123 465v217h768v-217h-768z" />
<glyph unicode="&#x2011;" horiz-adv-x="1013" d="M123 465v217h768v-217h-768z" />
<glyph unicode="&#x2012;" horiz-adv-x="1013" d="M123 465v217h768v-217h-768z" />
<glyph unicode="&#x2013;" horiz-adv-x="1325" d="M125 465v217h1075v-217h-1075z" />
<glyph unicode="&#x2014;" horiz-adv-x="1675" d="M125 465v217h1425v-217h-1425z" />
<glyph unicode="&#x2018;" horiz-adv-x="479" d="M94 1200q0 111 38 235t110 224l155 -10q-35 -74 -55 -173.5t-20 -197.5q0 -61 10 -116.5t33 -117.5l-246 -10q-10 35 -17.5 77t-7.5 89z" />
<glyph unicode="&#x2019;" horiz-adv-x="473" d="M86 1042q37 74 56.5 174.5t19.5 196.5q0 61 -10.5 116.5t-34.5 117.5l248 12q25 -72 24 -166q0 -111 -38 -234.5t-109 -224.5z" />
<glyph unicode="&#x201a;" horiz-adv-x="489" d="M68 -305q37 74 56 174t19 197q0 61 -10 116.5t-35 116.5l248 12q25 -72 25 -166q0 -111 -38 -234.5t-110 -223.5z" />
<glyph unicode="&#x201c;" horiz-adv-x="946" d="M94 1200q0 111 38 235t110 224l155 -10q-35 -74 -55 -173.5t-20 -197.5q0 -61 10 -116.5t33 -117.5l-246 -10q-10 35 -17.5 77t-7.5 89zM563 1200q0 111 38 235t110 224l155 -10q-35 -74 -55 -173.5t-20 -197.5q0 -61 10 -116.5t33 -117.5l-246 -10q-10 35 -17.5 77 t-7.5 89z" />
<glyph unicode="&#x201d;" horiz-adv-x="942" d="M86 1042q37 74 56.5 174.5t19.5 196.5q0 61 -10.5 116.5t-34.5 117.5l248 12q25 -72 24 -166q0 -111 -38 -234.5t-109 -224.5zM555 1042q37 74 56.5 174.5t19.5 196.5q0 61 -10.5 116.5t-34.5 117.5l248 12q25 -72 24 -166q0 -111 -38 -234.5t-109 -224.5z" />
<glyph unicode="&#x201e;" horiz-adv-x="958" d="M68 -305q37 74 56 174t19 197q0 61 -10 116.5t-35 116.5l248 12q25 -72 25 -166q0 -111 -38 -234.5t-110 -223.5zM537 -305q37 74 56 174t19 197q0 61 -10 116.5t-35 116.5l248 12q25 -72 25 -166q0 -111 -38 -234.5t-110 -223.5z" />
<glyph unicode="&#x2022;" horiz-adv-x="731" d="M147 758q0 111 60.5 162t159.5 51q96 0 156.5 -51.5t60.5 -161.5q0 -111 -60.5 -162t-156.5 -51q-98 0 -159 51t-61 162z" />
<glyph unicode="&#x2026;" horiz-adv-x="1607" d="M102 145q0 80 43 118t121 38t123 -39t45 -117q0 -80 -45 -118.5t-123 -38.5q-76 0 -120 39t-44 118zM645 145q0 80 43 118t121 38t123 -39t45 -117q0 -80 -45 -118.5t-123 -38.5q-76 0 -120 39t-44 118zM1174 145q0 80 43 118t120 38q78 0 123 -39t45 -117 q0 -80 -45 -118.5t-123 -38.5q-76 0 -119.5 39t-43.5 118z" />
<glyph unicode="&#x202f;" horiz-adv-x="410" />
<glyph unicode="&#x2039;" horiz-adv-x="796" d="M61 549v8l369 487h291l-369 -487v-8l369 -488h-291z" />
<glyph unicode="&#x203a;" horiz-adv-x="796" d="M78 61l368 488v8l-368 487h291l366 -487v-8l-366 -488h-291z" />
<glyph unicode="&#x205f;" horiz-adv-x="513" />
<glyph unicode="&#x20ac;" horiz-adv-x="1376" d="M78 502v166h162q-2 23 -2 44v44v45t2 45h-162v168h182q51 266 233.5 393t516.5 127q98 0 167.5 -9t118.5 -18l-73 -233q-27 4 -72 9t-86 5q-121 0 -209 -13t-148.5 -46t-98.5 -85t-56 -130h584l-37 -168h-568q-2 -23 -2 -45.5v-44.5v-45.5t2 -42.5h533l-39 -166h-471 q18 -78 56 -130.5t99.5 -85t148.5 -47t206 -14.5q51 0 104.5 4t110.5 17v-242q-43 -12 -109.5 -18t-144.5 -6q-344 2 -528.5 130t-237.5 392h-182z" />
<glyph unicode="&#x2122;" horiz-adv-x="1990" d="M63 1362v154h738v-154h-277v-707h-186v707h-275zM901 655v861h240l233 -592l234 592h239v-861h-172v609l-225 -574h-150l-227 572v-607h-172z" />
<glyph unicode="&#x25fc;" horiz-adv-x="1105" d="M0 0v1106h1106v-1106h-1106z" />
</font>
</defs>
</svg>
